<svg width="15" height="15" viewBox="0 0 182 182" fill="none" xmlns="http://www.w3.org/2000/svg">
<g clip-path="url(#clip0_139_3019)">
<path d="M91 182C141.258 182 182 141.258 182 91C182 40.7421 141.258 0 91 0C40.7421 0 0 40.7421 0 91C0 141.258 40.7421 182 91 182Z" fill="#A5CE55"/>
<path d="M182 91C182 80.4554 180.2 70.3323 176.902 60.9138L139.34 23.3518C139.34 23.3518 113.81 30.6286 109.78 41.3531L93.3571 25.5418L83.7719 38.0376L71.2374 25.5418L62.977 38.0376L49.376 25.5418H37.9203L50.1211 68.5187C50.1211 75.4937 45.9426 85.9488 45.9426 85.9488L57.64 97.7002L58.6573 160.62L79.2894 181.252C83.1235 181.744 87.0319 182 91 182C141.258 182 182 141.258 182 91Z" fill="#A5CE55"/>
<path d="M53.8638 87.9263H77.414V118.852H53.8638V87.9263Z" fill="#FFE780"/>
<path d="M65.6409 87.9252H77.414V118.851H65.6409V87.9252Z" fill="#FBBE2C"/>
<path d="M65.6391 162.914C59.1358 162.914 53.8638 157.642 53.8638 151.139V108.544H77.414V151.139C77.4143 157.642 72.1424 162.914 65.6391 162.914Z" fill="#605553"/>
<path d="M115.789 87.9263H139.339V118.852H115.789V87.9263Z" fill="#FFE780"/>
<path d="M127.564 87.9252H139.34V118.851H127.564V87.9252Z" fill="#FBBE2C"/>
<path d="M127.565 162.914C121.061 162.914 115.789 157.642 115.789 151.139V108.544H139.339V151.139C139.339 157.642 134.068 162.914 127.565 162.914Z" fill="#605553"/>
<path d="M139.34 108.542V151.138C139.34 157.643 134.069 162.915 127.564 162.915V108.542H139.34Z" fill="#4C403F"/>
<path d="M139.339 89.7036H119.605C112.394 89.7036 106.547 83.8572 106.547 76.6458V51.6649C106.547 36.0278 119.224 23.3518 134.861 23.3518H139.339V89.7036Z" fill="#EEF9FF"/>
<path d="M81.9018 25.5415V55.4009C81.9018 58.3456 79.5145 60.7329 76.5698 60.7329C73.6251 60.7329 71.2377 58.3456 71.2377 55.4009V25.5415H60.0405V55.4009C60.0405 58.3456 57.6531 60.7329 54.7084 60.7329C51.7637 60.7329 49.3764 58.3456 49.3764 55.4009V25.5415H37.9207V68.5184C37.9207 81.2001 48.2012 91.481 60.8833 91.481H70.3949C83.0766 91.481 93.3575 81.2004 93.3575 68.5184V25.5415H81.9018Z" fill="#EEF9FF"/>
<path d="M93.3568 25.5405V68.5202C93.3568 78.7506 86.6633 87.4205 77.414 90.3851C75.203 91.096 72.8427 91.4799 70.3935 91.4799H65.6409V25.5405H71.2395V55.3998C71.2395 58.3467 73.6247 60.7319 76.568 60.7319H76.5715C79.5148 60.7319 81.9036 58.3467 81.9036 55.3998V25.5405H93.3568Z" fill="#D2EBFF"/>
<path d="M77.414 108.542V151.138C77.414 157.643 72.1424 162.915 65.6409 162.915V108.542H77.414Z" fill="#4C403F"/>
<path d="M139.34 23.3508V89.7026H127.564V24.3034C129.892 23.6814 132.337 23.3508 134.861 23.3508H139.34Z" fill="#D2EBFF"/>
</g>
<defs>
<clipPath id="clip0_139_3019">
<rect width="182" height="182" fill="white"/>
</clipPath>
</defs>
</svg>
