<svg width="15" height="15" viewBox="0 0 15 15" fill="none" xmlns="http://www.w3.org/2000/svg">
<g clip-path="url(#clip0_14_2495)">
<path d="M7.5 14.5312C11.3833 14.5312 14.5312 11.3833 14.5312 7.5C14.5312 3.61675 11.3833 0.46875 7.5 0.46875C3.61675 0.46875 0.46875 3.61675 0.46875 7.5C0.46875 11.3833 3.61675 14.5312 7.5 14.5312Z" fill="#E92B2B"/>
<path d="M5.15625 6.65625L7.03125 7.96875L6.32812 5.8125L8.20312 4.45312H5.88281L5.15625 2.34375L4.45312 4.45312H2.10938L3.98438 5.8125L3.28125 7.96875L5.15625 6.65625ZM8.27344 8.27344L7.73438 8.39062L8.25 8.60156V9.14062L8.60156 8.74219L9.11719 8.92969L8.8125 8.48438L9.14062 8.0625L8.60156 8.17969L8.27344 7.73438V8.27344ZM9.07031 6.67969L8.67188 7.03125L9.21094 6.98438L9.44531 7.5L9.53906 6.96094L10.0781 6.91406L9.60938 6.63281L9.72656 6.09375L9.32812 6.44531L8.85938 6.16406L9.07031 6.67969ZM9.21094 4.85156L9.375 5.39062L9.53906 4.875H10.0781L9.65625 4.54688L9.82031 4.00781L9.375 4.33594L8.95312 3.98438L9.11719 4.52344L8.67188 4.82812L9.21094 4.85156ZM8.27344 2.97656V3.51562L8.60156 3.07031L9.14062 3.1875L8.8125 2.76563L9.11719 2.32031L8.60156 2.53125L8.25 2.10938V2.64844L7.73438 2.85937L8.27344 2.97656Z" fill="#FFE62E"/>
</g>
<defs>
<clipPath id="clip0_14_2495">
<rect width="15" height="15" fill="white"/>
</clipPath>
</defs>
</svg>
