<svg width="15" height="15" viewBox="0 0 15 15" fill="none" xmlns="http://www.w3.org/2000/svg">
<path d="M14.4812 7.5C14.4812 11.3556 11.3556 14.4812 7.5 14.4812C3.64436 14.4812 0.51875 11.3556 0.51875 7.5C0.51875 3.64436 3.64436 0.51875 7.5 0.51875C11.3556 0.51875 14.4812 3.64436 14.4812 7.5Z" fill="white" stroke="#CCCCCC" stroke-width="0.1"/>
<path d="M5.48434 7.89844C6.14059 8.34375 7.05465 8.15625 7.49996 7.5C7.94528 6.84375 8.8359 6.65625 9.51559 7.10156C10.1484 7.52344 10.3359 8.34375 9.98434 8.97656C10.7578 7.66406 10.4062 5.95312 9.09371 5.08594C7.75778 4.19531 5.95309 4.54687 5.06246 5.88281C5.03903 5.92969 5.01559 5.97656 4.99215 6C4.66403 6.67969 4.87496 7.47656 5.48434 7.89844Z" fill="#ED4C5C"/>
<path d="M9.51573 7.10156C8.85948 6.65625 7.94542 6.84375 7.50011 7.5C7.05479 8.15625 6.16417 8.34375 5.48448 7.89844C4.85167 7.47656 4.66417 6.65625 5.01573 6.02344C4.21886 7.33594 4.59386 9.04687 5.90636 9.91406C7.24229 10.8047 9.04698 10.4531 9.93761 9.11719C9.96104 9.07031 9.98448 9.02344 10.0079 9C10.336 8.32031 10.1251 7.52344 9.51573 7.10156Z" fill="#428BC1"/>
<path d="M1.82813 5.46094L3.44531 3.04687L3.28125 2.92969L3.11719 2.83594L1.5 5.25L1.66406 5.34375L1.82813 5.46094ZM2.27344 5.76562L2.4375 5.85938L4.03125 3.44531L3.89063 3.35156L3.72656 3.23437L2.10938 5.64844L2.27344 5.76562ZM4.3125 3.63281L2.71875 6.04687L2.88281 6.16406L3.04688 6.25781L4.64062 3.84375L4.47656 3.75L4.3125 3.63281ZM11.3672 9.96094L11.5312 10.0781L12.2812 8.95312L12.1172 8.83594L11.9531 8.74219L11.2031 9.86719L11.3672 9.96094ZM13.1719 9.53906L12.4219 10.6641L12.5859 10.7813L12.75 10.875L13.5 9.75L13.3359 9.65625L13.1719 9.53906ZM12.1406 10.4766L12.8906 9.35156L12.7266 9.23438L12.5625 9.14062L11.8125 10.2656L11.9766 10.3594L12.1406 10.4766ZM11.2734 10.125L11.1094 10.0312L10.3594 11.1562L10.5234 11.25L10.6875 11.3672L11.4375 10.2422L11.2734 10.125ZM11.8594 10.5234L11.7188 10.4297L10.9687 11.5547L11.1094 11.6484L11.2734 11.7656L12.0234 10.6406L11.8594 10.5234ZM12.3047 10.8281L11.5547 11.9531L11.7188 12.0703L11.8828 12.1641L12.6328 11.0391L12.4688 10.9219L12.3047 10.8281ZM1.66406 9.65625L1.5 9.75L3.11719 12.1641L3.28125 12.0703L3.44531 11.9531L1.82813 9.53906L1.66406 9.65625ZM3.14062 10.5234L2.97656 10.6406L3.72656 11.7656L3.89063 11.6484L4.03125 11.5547L3.28125 10.4297L3.14062 10.5234ZM2.88281 8.83594L2.71875 8.95312L4.3125 11.3672L4.47656 11.25L4.64062 11.1562L3.04688 8.74219L2.88281 8.83594ZM2.10938 9.35156L2.85937 10.4766L3.02344 10.3594L3.1875 10.2656L2.4375 9.14062L2.27344 9.23438L2.10938 9.35156ZM12.4688 4.07812L12.6328 3.96094L11.8828 2.83594L11.7188 2.92969L11.5547 3.04687L12.3047 4.17187L12.4688 4.07812ZM11.2734 4.875L11.4375 4.75781L10.6875 3.63281L10.5234 3.75L10.3594 3.84375L11.1094 4.96875L11.2734 4.875ZM12.4219 4.33594L13.1719 5.46094L13.3359 5.34375L13.5 5.25L12.75 4.125L12.5859 4.21875L12.4219 4.33594ZM12.7266 5.76562L12.8906 5.64844L11.2734 3.23437L11.1094 3.35156L10.9687 3.44531L12.5625 5.85938L12.7266 5.76562ZM12.1172 6.16406L12.2812 6.04687L11.5312 4.92188L11.3672 5.03906L11.2031 5.13281L11.9531 6.25781L12.1172 6.16406Z" fill="#3E4347"/>
</svg>
