<?xml version="1.0" encoding="UTF-8" standalone="no"?>
<!-- Created with Inkscape (http://www.inkscape.org/) -->

<svg
   version="1.1"
   id="svg3801"
   xml:space="preserve"
   width="682.66669"
   height="682.66669"
   viewBox="0 0 682.66669 682.66669"
   xmlns="http://www.w3.org/2000/svg"
   xmlns:svg="http://www.w3.org/2000/svg"><defs
     id="defs3805"><clipPath
       clipPathUnits="userSpaceOnUse"
       id="clipPath3821"><path
         d="M 0,512 H 512 V 0 H 0 Z"
         id="path3819" /></clipPath></defs><g
     id="g3807"
     transform="matrix(1.3333333,0,0,-1.3333333,0,682.66667)"><g
       id="g3809"
       transform="translate(256,392)"><path
         d="M 0,0 H -165 V -270 H 0 165 V 0 Z"
         style="fill:#663d3d;fill-opacity:1;fill-rule:nonzero;stroke:none"
         id="path3811" /></g><path
       d="M 421,122 H 256 v 270 h 165 z"
       style="fill:#4d2e2e;fill-opacity:1;fill-rule:nonzero;stroke:none"
       id="path3813" /><g
       id="g3815"><g
         id="g3817"
         clip-path="url(#clipPath3821)"><g
           id="g3823"
           transform="translate(346,347)"><path
             d="m 0,0 v 60 h -90 -90 V 0 c 0,-50.757 24.111,-96.211 60,-113.086 v -0.015 C -120,-133.447 -136.553,-150 -156.914,-150 L -135,-165 h 45 45 l 21.914,15 C -43.447,-150 -60,-133.447 -60,-113.101 -24.111,-96.211 0,-50.757 0,0"
             style="fill:#ffd9b3;fill-opacity:1;fill-rule:nonzero;stroke:none"
             id="path3825" /></g><g
           id="g3827"
           transform="translate(322.9141,197)"><path
             d="m 0,0 c -20.361,0 -36.914,16.553 -36.914,36.899 35.889,16.89 60,62.344 60,113.101 v 60 h -90 V -15 h 45 z"
             style="fill:#ffbb99;fill-opacity:1;fill-rule:nonzero;stroke:none"
             id="path3829" /></g><g
           id="g3831"
           transform="translate(256,512)"><path
             d="M 0,0 -247.998,-150 H 0 247.998 Z"
             style="fill:#ffdf40;fill-opacity:1;fill-rule:nonzero;stroke:none"
             id="path3833" /></g><g
           id="g3835"
           transform="translate(256,512)"><path
             d="M 0,0 V -150 H 247.998 Z"
             style="fill:#ffbe40;fill-opacity:1;fill-rule:nonzero;stroke:none"
             id="path3837" /></g><g
           id="g3839"
           transform="translate(376,197)"><path
             d="m 0,0 h -45 l -30,15 c 0,0 -44.456,-15.055 -45,-15.337 -0.002,-0.002 -0.079,-0.027 -0.079,-0.027 C -120.18,-0.231 -165,15 -165,15 L -195,0 h -45 c -41.422,0 -75,-33.578 -75,-75 v -122 h 60 l 15.315,17 14.685,-17 h 105 105 l 15,17 15,-17 H 75 V -75 C 75,-33.578 41.422,0 0,0"
             style="fill:#f3f5f9;fill-opacity:1;fill-rule:nonzero;stroke:none"
             id="path3841" /></g><g
           id="g3843"
           transform="translate(376,17)"><path
             d="m 0,0 15,-17 h 60 v 122 c 0,41.422 -33.578,75 -75,75 h -45 l -30,15 c 0,0 -44.456,-15.055 -45,-15.337 V -17 h 105 z"
             style="fill:#e1e6f0;fill-opacity:1;fill-rule:nonzero;stroke:none"
             id="path3845" /></g><path
           d="m 391,0 h -30 v 62 h 30 z"
           style="fill:#cfd7e6;fill-opacity:1;fill-rule:nonzero;stroke:none"
           id="path3847" /><g
           id="g3849"
           transform="translate(316,227)"><path
             d="m 0,0 c -24.436,0 -46.038,-11.858 -59.738,-30 -0.077,-0.103 -0.174,-0.188 -0.262,-0.28 -0.027,-0.028 -0.057,-0.053 -0.079,-0.084 -0.101,0.133 -0.239,0.23 -0.34,0.364 C -74.117,-11.906 -95.598,0 -120,0 h -15 v -30 h 15 c 22.136,0 40.483,-16.093 44.209,-37.178 L -195,-141.68 V -227 h 30 v 68.68 l 105,65.625 15,9.375 V -75 c 0,24.814 20.186,45 45,45 H 15 V 0 Z"
             style="fill:#e1e6f0;fill-opacity:1;fill-rule:nonzero;stroke:none"
             id="path3851" /></g><g
           id="g3853"
           transform="translate(271,152)"><path
             d="M 0,0 C 0,24.814 20.186,45 45,45 H 60 V 75 H 45 C 20.564,75 -1.038,63.142 -14.738,45 -14.815,44.897 -14.912,44.812 -15,44.72 V -17.695 L 0,-8.32 Z"
             style="fill:#cfd7e6;fill-opacity:1;fill-rule:nonzero;stroke:none"
             id="path3855" /></g></g></g></g></svg>
