<svg id="Icon_Set" height="15" viewBox="0 0 256 256" width="15" xmlns="http://www.w3.org/2000/svg"><g><g><g><g><path d="m6.48 209.828 61.756-61.422 36.152 36.152-61.756 61.422c-1.386 1.386-3.719.081-3.263-1.825l4.081-17.069 4.944-20.679c.337-1.409-.932-2.678-2.341-2.341l-37.748 9.024c-1.906.456-3.211-1.877-1.825-3.262z" fill="#44c7b6"/><path d="m249.52 209.828-61.756-61.422-36.152 36.152 61.756 61.422c1.386 1.386 3.719.081 3.263-1.825l-4.081-17.069-4.944-20.679c-.337-1.409.932-2.678 2.341-2.341l37.748 9.026c1.906.454 3.211-1.879 1.825-3.264z" fill="#44c7b6"/><g><g><g><circle cx="128" cy="110.902" fill="#44c7b6" r="101.464"/><circle cx="128" cy="110.902" fill="#ffe2e2" r="80.214"/><path d="m135.264 190.791c-2.392.223-4.813.329-7.264.329-44.299 0-80.211-35.922-80.211-80.221s35.912-80.211 80.211-80.211c2.45 0 4.872.107 7.264.329-40.9 3.671-72.948 38.033-72.948 79.882s32.048 76.221 72.948 79.892z" fill="#ffefee"/><path d="m208.211 110.899c0 44.299-35.912 80.221-80.211 80.221-2.45 0-4.872-.107-7.264-.329 40.9-3.671 72.948-38.043 72.948-79.892s-32.048-76.212-72.948-79.882c2.392-.223 4.813-.329 7.264-.329 44.299-.001 80.211 35.911 80.211 80.211z" fill="#ffcfcf"/></g></g></g></g></g><g><path d="m87.243 110.005c-9.657-9.657-12.182-22.79-5.64-29.332s19.675-4.017 29.332 5.64 8.593 19.201 2.051 25.743-16.085 7.606-25.743-2.051z" fill="#87828e"/></g></g><g fill="#5f266d"><path d="m252.35 206.997s-36.966-36.767-37.11-36.91c11.5-16.88 18.22-37.27 18.22-59.19 0-58.15-47.31-105.46-105.46-105.46s-105.46 47.31-105.46 105.46c0 21.92 6.72 42.31 18.22 59.19-.144.143-37.11 36.91-37.11 36.91-4.243 4.243-.218 11.38 5.58 9.98l34.49-8.24-8.24 34.49c-1.405 5.819 5.775 9.785 9.97 5.59l41.15-40.92c26.344 11.297 56.444 11.302 82.8 0l41.14 40.91c4.221 4.221 11.381.225 9.98-5.58l-8.24-34.49 34.48 8.24c5.792 1.415 9.84-5.73 5.59-9.98zm-207.41 31.04 7.35-30.7c1.008-4.264-2.781-8.188-7.17-7.16l-30.63 7.32 31.07-30.9c9.06 11.36 20.42 20.81 33.37 27.63zm83.06-29.67c-53.683 0-97.46-43.683-97.46-97.47 0-53.74 43.72-97.46 97.46-97.46s97.46 43.72 97.46 97.46c0 53.725-43.709 97.47-97.46 97.47zm82.88-8.19c-4.302-1.039-8.192 2.837-7.17 7.16l7.35 30.7-33.99-33.81c12.95-6.82 24.31-16.27 33.37-27.63l31.07 30.9z"/><path d="m212.21 110.897c0-46.43-37.77-84.21-84.21-84.21s-84.21 37.78-84.21 84.21c0 46.495 37.822 84.22 84.21 84.22 46.344 0 84.21-37.694 84.21-84.22zm-84.21 76.22c-41.98 0-76.21-34.173-76.21-76.22 0-42.02 34.19-76.21 76.21-76.21s76.21 34.19 76.21 76.21c0 42.201-34.404 76.22-76.21 76.22z"/><path d="m113.76 50.477c1.57-.39 3.17-.72 4.76-.97 2.18-.34 3.67-2.39 3.32-4.57-.34-2.19-2.39-3.68-4.57-3.33-1.82.29-3.64.66-5.43 1.1-2.15.53-3.46 2.69-2.93 4.84.485 1.962 2.439 3.442 4.85 2.93z"/><path d="m87.25 65.457c4-4 8.52-7.36 13.46-9.99 1.95-1.04 2.69-3.46 1.65-5.41s-3.47-2.69-5.41-1.65c-5.64 3.01-10.8 6.84-15.35 11.39-1.57 1.56-1.57 4.1 0 5.66 1.57 1.57 4.099 1.551 5.65 0z"/><path d="m175.205 89.464-19.442 19.442c-.592.587-2.221-.186-2.908-.873l-1.623-1.623 20.46-20.46c1.563-1.562 1.563-4.095 0-5.656-1.563-1.563-4.096-1.563-5.656 0l-20.46 20.459-1.623-1.624c-1.173-1.173-1.232-2.55-.874-2.908l19.441-19.441c1.563-1.562 1.563-4.095 0-5.656-1.561-1.563-4.096-1.563-5.656 0l-19.442 19.442c-3.68 3.679-3.288 10.059.873 14.221l1.624 1.624-13.46 13.46-8.056-8.056c6.492-9.144 3.953-19.748-4.642-28.327-11.39-11.39-26.76-13.87-34.98-5.64-8.23 8.23-5.76 23.59 5.64 34.99 8.301 8.301 18.968 11.28 28.33 4.64 0 0 .001 0 .001-.001l8.051 8.051-27.92 27.92c-1.563 1.562-1.563 4.095 0 5.656 1.562 1.562 4.095 1.563 5.656 0l27.92-27.92 28.224 28.224c1.56 1.562 4.096 1.563 5.656 0 1.563-1.562 1.563-4.095 0-5.656l-28.224-28.224 13.46-13.46 1.623 1.623c4.163 4.165 10.545 4.551 14.221.873l19.442-19.442c1.563-1.562 1.563-4.095 0-5.656-1.56-1.564-4.095-1.564-5.656-.002zm-65.052 19.77c-6.345 6.339-13.658 4.368-20.083-2.057-7.94-7.95-10.53-18.79-5.64-23.68 4.853-4.853 15.687-2.338 23.68 5.64 6.428 6.428 8.436 14.079 2.043 20.097z"/></g></g></svg>