<?xml version="1.0" encoding="UTF-8" standalone="no"?>
<!-- Created with Inkscape (http://www.inkscape.org/) -->

<svg
   version="1.1"
   id="svg1680"
   xml:space="preserve"
   width="682.66669"
   height="682.66669"
   viewBox="0 0 682.66669 682.66669"
   xmlns="http://www.w3.org/2000/svg"
   xmlns:svg="http://www.w3.org/2000/svg"><defs
     id="defs1684"><clipPath
       clipPathUnits="userSpaceOnUse"
       id="clipPath1694"><path
         d="M 0,512 H 512 V 0 H 0 Z"
         id="path1692" /></clipPath></defs><g
     id="g1686"
     transform="matrix(1.3333333,0,0,-1.3333333,0,682.66667)"><g
       id="g1688"><g
         id="g1690"
         clip-path="url(#clipPath1694)"><g
           id="g1696"
           transform="translate(277.9765,382.5611)"><path
             d="m 0,0 -13.343,-0.834 -59.5,-14.266 -63,-89.474 v -93.344 l 63.25,-77 59,-17.375 L 0,-292.708 c 72.125,9.752 127.728,71.555 127.728,146.354 C 127.728,-71.556 72.125,-9.753 0,0"
             style="fill:#dbedff;fill-opacity:1;fill-rule:nonzero;stroke:none"
             id="path1698" /></g><g
           id="g1700"
           transform="translate(38.6909,234.3072)"><path
             d="m 0,0 h 27.607 c 0.265,0 0.526,-0.015 0.784,-0.039 V 101.654 H -0.784 V -0.039 C -0.525,-0.015 -0.264,0 0,0"
             style="fill:#8bcaff;fill-opacity:1;fill-rule:nonzero;stroke:none"
             id="path1702" /></g><g
           id="g1704"
           transform="translate(460.7383,254.9766)"><path
             d="m 0,0 v -40.167 c 0.259,0.027 0.52,0.043 0.784,0.043 h 27.608 c 0.264,0 0.525,-0.016 0.783,-0.043 V 0 Z"
             style="fill:#8bcaff;fill-opacity:1;fill-rule:nonzero;stroke:none"
             id="path1706" /></g><g
           id="g1708"
           transform="translate(150.2495,236.2066)"><path
             d="m 0,0 c 0,74.798 55.603,136.601 127.727,146.354 -6.534,0.884 -13.2,1.35 -19.977,1.35 C 26.176,147.704 -39.953,81.575 -39.953,0 c 0,-81.574 66.129,-147.704 147.703,-147.704 6.777,0 13.443,0.467 19.977,1.35 C 55.603,-136.601 0,-74.798 0,0"
             style="fill:#b5dcff;fill-opacity:1;fill-rule:nonzero;stroke:none"
             id="path1710" /></g><g
           id="g1712"
           transform="translate(81.6269,78.5596)"><path
             d="m 0,0 -6.968,149.891 c -0.237,4.444 -3.91,7.927 -8.361,7.927 h -27.607 c -4.451,0 -8.124,-3.483 -8.36,-7.927 L -58.266,0 c -0.887,-16.698 12.412,-30.724 29.134,-30.724 16.72,0 30.02,14.026 29.132,30.724"
             style="fill:#ffaa5b;fill-opacity:1;fill-rule:nonzero;stroke:none"
             id="path1714" /></g><g
           id="g1716"
           transform="translate(45.4067,367.4615)"><path
             d="M 0,0 -2.085,-1.881 V -15.75 l 5.56,-15.75 h 26.24 c 12.353,0 22.366,10.013 22.366,22.366 l 0,9.134 z"
             style="fill:#dbedff;fill-opacity:1;fill-rule:nonzero;stroke:none"
             id="path1718" /></g><g
           id="g1720"
           transform="translate(45.4067,358.7002)"><path
             d="m 0,0 v 8.761 h -37.907 v -9.134 c 0,-12.353 10.014,-22.366 22.366,-22.366 H 8.62 C 3.26,-16.683 0,-8.724 0,0"
             style="fill:#b5dcff;fill-opacity:1;fill-rule:nonzero;stroke:none"
             id="path1722" /></g><g
           id="g1724"
           transform="translate(504.458,78.5596)"><path
             d="m 0,0 -6.968,131.023 c -0.237,4.445 -3.91,7.928 -8.361,7.928 h -27.607 c -4.451,0 -8.124,-3.483 -8.36,-7.928 L -58.266,0 c -0.887,-16.698 12.412,-30.724 29.134,-30.724 16.72,0 30.02,14.026 29.132,30.724"
             style="fill:#ffaa5b;fill-opacity:1;fill-rule:nonzero;stroke:none"
             id="path1726" /></g><g
           id="g1728"
           transform="translate(47.9258,78.5596)"><path
             d="m 0,0 6.969,149.891 c 0.237,4.444 3.909,7.927 8.361,7.927 H -9.235 c -4.451,0 -8.124,-3.483 -8.36,-7.927 L -24.564,0 c -0.888,-16.698 12.412,-30.723 29.133,-30.723 4.397,0 8.554,0.978 12.282,2.711 C 6.402,-23.153 -0.654,-12.306 0,0"
             style="fill:#ff9838;fill-opacity:1;fill-rule:nonzero;stroke:none"
             id="path1730" /></g><g
           id="g1732"
           transform="translate(470.7568,78.5596)"><path
             d="m 0,0 6.969,131.024 c 0.237,4.444 3.909,7.927 8.361,7.927 H -9.235 c -4.451,0 -8.124,-3.483 -8.36,-7.927 L -24.564,0 c -0.888,-16.698 12.412,-30.723 29.133,-30.723 4.397,0 8.554,0.978 12.282,2.711 C 6.402,-23.153 -0.654,-12.306 0,0"
             style="fill:#ff9838;fill-opacity:1;fill-rule:nonzero;stroke:none"
             id="path1734" /></g><g
           id="g1736"
           transform="translate(498.6338,457.003)"><path
             d="m 0,0 -26.667,-19.526 -17.833,-40.5 v -121.5 l 14.25,-7.709 6.942,-12 6.109,-3.015 h 11.843 c 5.094,0 9.223,4.129 9.223,9.223 V -4.058 c 0,1.447 -0.268,2.811 -0.751,4.058 z"
             style="fill:#dbedff;fill-opacity:1;fill-rule:nonzero;stroke:none"
             id="path1738" /></g><g
           id="g1740"
           transform="translate(476.2788,258.9795)"><path
             d="m 0,0 c -2.513,7.596 -7.814,13.92 -14.693,17.76 -2.927,1.634 -4.754,4.707 -4.754,8.058 v 95.169 c 0,32.282 17.514,61.527 44.918,77.036 -2.095,5.413 -8.243,8.598 -14.167,6.521 -35.492,-12.442 -59.251,-45.947 -59.251,-83.557 V 25.818 c 0,-3.351 1.827,-6.424 4.754,-8.058 6.879,-3.84 12.18,-10.164 14.693,-17.76 1.237,-3.738 4.777,-6.227 8.715,-6.227 h 28.5 C 4.777,-6.227 1.237,-3.738 0,0"
             style="fill:#b5dcff;fill-opacity:1;fill-rule:nonzero;stroke:none"
             id="path1742" /></g><g
           id="g1744"
           transform="translate(277.976,343.1831)"><path
             d="m 0,0 h -22.092 l -44.5,-33.29 -29.75,-54.917 v -54.166 l 31.948,-50.464 44.418,-21.536 19.976,0.42 c 50.554,9.382 88.837,53.705 88.837,106.976 C 88.837,-53.705 50.554,-9.381 0,0"
             style="fill:#b5dcff;fill-opacity:1;fill-rule:nonzero;stroke:none"
             id="path1746" /></g><g
           id="g1748"
           transform="translate(189.1406,236.2066)"><path
             d="m 0,0 c 0,53.271 38.283,97.595 88.836,106.977 -6.476,1.201 -13.152,1.836 -19.977,1.836 C 8.764,108.813 -39.953,60.096 -39.953,0 c 0,-60.095 48.717,-108.813 108.812,-108.813 6.825,0 13.501,0.635 19.977,1.837 C 38.283,-97.595 0,-53.271 0,0"
             style="fill:#8bcaff;fill-opacity:1;fill-rule:nonzero;stroke:none"
             id="path1750" /></g><g
           id="g1752"
           transform="translate(405.7041,236.2066)"><path
             d="m 0,0 c 0,-81.575 -66.129,-147.704 -147.704,-147.704 -81.574,0 -147.704,66.129 -147.704,147.704 0,81.575 66.13,147.704 147.704,147.704 C -66.129,147.704 0,81.575 0,0 Z"
             style="fill:none;stroke:#000000;stroke-width:15;stroke-linecap:round;stroke-linejoin:round;stroke-miterlimit:10;stroke-dasharray:none;stroke-opacity:1"
             id="path1754" /></g><g
           id="g1756"
           transform="translate(81.6269,78.5596)"><path
             d="m 0,0 -6.968,149.891 c -0.237,4.444 -3.91,7.927 -8.361,7.927 h -27.607 c -4.451,0 -8.124,-3.483 -8.36,-7.927 L -58.266,0 c -0.887,-16.698 12.412,-30.724 29.134,-30.724 16.72,0 30.02,14.026 29.132,30.724 z"
             style="fill:none;stroke:#000000;stroke-width:15;stroke-linecap:round;stroke-linejoin:round;stroke-miterlimit:10;stroke-dasharray:none;stroke-opacity:1"
             id="path1758" /></g><g
           id="g1760"
           transform="translate(38.6909,236.378)"><path
             d="m 0,0 h 27.607 c 0.265,0 0.526,-0.015 0.784,-0.039 V 99.583 H -0.784 V -0.039 C -0.525,-0.015 -0.264,0 0,0 Z"
             style="fill:none;stroke:#000000;stroke-width:15;stroke-linecap:round;stroke-linejoin:round;stroke-miterlimit:10;stroke-dasharray:none;stroke-opacity:1"
             id="path1762" /></g><g
           id="g1764"
           transform="translate(7.5005,453.1695)"><path
             d="m 0,0 v -94.842 c 0,-12.353 10.014,-22.366 22.366,-22.366 h 45.256 c 12.353,0 22.366,10.013 22.366,22.366 V 0"
             style="fill:none;stroke:#000000;stroke-width:15;stroke-linecap:round;stroke-linejoin:round;stroke-miterlimit:10;stroke-dasharray:none;stroke-opacity:1"
             id="path1766" /></g><g
           id="g1768"
           transform="translate(37.9067,368.0445)"><path
             d="M 0,0 V 85.125"
             style="fill:none;stroke:#000000;stroke-width:15;stroke-linecap:round;stroke-linejoin:round;stroke-miterlimit:10;stroke-dasharray:none;stroke-opacity:1"
             id="path1770" /></g><g
           id="g1772"
           transform="translate(67.0815,368.0445)"><path
             d="M 0,0 V 85.125"
             style="fill:none;stroke:#000000;stroke-width:15;stroke-linecap:round;stroke-linejoin:round;stroke-miterlimit:10;stroke-dasharray:none;stroke-opacity:1"
             id="path1774" /></g><g
           id="g1776"
           transform="translate(7.5005,367.461)"><path
             d="M 0,0 V -9.134 C 0,-21.486 10.014,-31.5 22.366,-31.5 h 45.256 c 12.353,0 22.366,10.014 22.366,22.366 V 0 Z"
             style="fill:none;stroke:#000000;stroke-width:15;stroke-linecap:round;stroke-linejoin:round;stroke-miterlimit:10;stroke-dasharray:none;stroke-opacity:1"
             id="path1778" /></g><g
           id="g1780"
           transform="translate(487.5825,463.5235)"><path
             d="m 0,0 c -35.492,-12.442 -59.251,-45.947 -59.251,-83.557 v -95.169 c 0,-3.351 1.827,-6.424 4.754,-8.058 6.879,-3.84 12.18,-10.164 14.693,-17.76 1.237,-3.738 4.778,-6.227 8.716,-6.227 H 5.695 c 5.094,0 9.223,4.129 9.223,9.223 v 190.97 C 14.918,-2.854 7.289,2.555 0,0 Z"
             style="fill:none;stroke:#000000;stroke-width:15;stroke-linecap:round;stroke-linejoin:round;stroke-miterlimit:10;stroke-dasharray:none;stroke-opacity:1"
             id="path1782" /></g><g
           id="g1784"
           transform="translate(460.7383,252.753)"><path
             d="m 0,0 v -35.28 c 0.259,0.024 0.52,0.038 0.784,0.038 h 27.608 c 0.264,0 0.525,-0.014 0.783,-0.038 V 0 Z"
             style="fill:none;stroke:#000000;stroke-width:15;stroke-linecap:round;stroke-linejoin:round;stroke-miterlimit:10;stroke-dasharray:none;stroke-opacity:1"
             id="path1786" /></g><g
           id="g1788"
           transform="translate(273.5,128.4981)"><path
             d="m 0,0 c 52.753,7.524 93.313,52.876 93.313,107.708 0,60.096 -48.717,108.813 -108.813,108.813 -60.095,0 -108.812,-48.717 -108.812,-108.813 C -124.312,54.27 -85.79,9.831 -35,0.641"
             style="fill:none;stroke:#000000;stroke-width:15;stroke-linecap:round;stroke-linejoin:round;stroke-miterlimit:10;stroke-dasharray:none;stroke-opacity:1"
             id="path1790" /></g><g
           id="g1792"
           transform="translate(500.1479,159.607)"><path
             d="m 0,0 -2.658,49.976 c -0.237,4.445 -3.909,7.928 -8.361,7.928 h -27.607 c -4.451,0 -8.124,-3.483 -8.36,-7.927 l -6.969,-131.024 c -0.888,-16.698 12.412,-30.724 29.133,-30.724 16.72,0 30.02,14.026 29.133,30.724 L 1.861,-35"
             style="fill:none;stroke:#000000;stroke-width:15;stroke-linecap:round;stroke-linejoin:round;stroke-miterlimit:10;stroke-dasharray:none;stroke-opacity:1"
             id="path1794" /></g></g></g></g></svg>
