<?xml version="1.0" standalone="no"?>
<!DOCTYPE svg PUBLIC "-//W3C//DTD SVG 20010904//EN"
 "http://www.w3.org/TR/2001/REC-SVG-20010904/DTD/svg10.dtd">
<svg version="1.0" xmlns="http://www.w3.org/2000/svg"
 width="1219.000000pt" height="1280.000000pt" viewBox="0 0 1219.000000 1280.000000"
 preserveAspectRatio="xMidYMid meet">
<metadata>
Created by potrace 1.15, written by Peter Selinger 2001-2017
</metadata>
<g transform="translate(0.000000,1280.000000) scale(0.100000,-0.100000)"
fill="#000000" stroke="none">
<path d="M7503 12782 c-28 -10 -68 -31 -88 -46 -51 -39 -132 -140 -189 -236
-64 -108 -363 -728 -431 -895 -141 -343 -263 -767 -360 -1250 -42 -205 -57
-259 -68 -244 -2 2 -32 58 -67 124 -490 931 -1299 1664 -2245 2034 -411 161
-803 252 -1245 291 -147 13 -853 13 -1075 0 -554 -32 -1044 -124 -1607 -301
-123 -39 -128 -41 -128 -68 0 -23 16 -38 112 -106 169 -117 371 -277 718 -565
649 -539 920 -726 1282 -884 328 -143 590 -200 1003 -217 259 -10 340 -19 540
-55 378 -69 883 -216 1390 -405 l170 -63 -90 -22 c-558 -132 -599 -138 -1295
-194 -206 -17 -428 -37 -492 -45 -671 -87 -1095 -296 -1403 -690 -288 -369
-475 -917 -561 -1649 -22 -183 -29 -639 -15 -866 143 -2207 1379 -4945 2696
-5973 286 -223 569 -365 857 -429 85 -19 132 -23 268 -22 210 0 247 8 620 136
509 174 501 172 675 172 169 0 199 -6 623 -115 130 -33 305 -78 387 -99 210
-54 293 -69 427 -79 281 -21 575 32 864 154 612 260 1238 845 1792 1672 780
1166 1361 2688 1556 4078 47 337 60 518 60 865 1 345 -9 483 -49 726 -73 434
-197 739 -428 1050 -675 912 -1674 1450 -2987 1608 -556 67 -1198 67 -1857 0
l-61 -7 39 192 c108 527 288 1069 476 1434 88 170 197 250 517 376 192 76 258
124 272 196 13 73 -37 151 -174 270 -162 141 -307 191 -429 147z"/>
</g>
</svg>
