<?xml version="1.0" encoding="UTF-8" standalone="no"?>
<!-- Created with Inkscape (http://www.inkscape.org/) -->

<svg
   version="1.1"
   id="svg4605"
   xml:space="preserve"
   width="682.66669"
   height="682.66669"
   viewBox="0 0 682.66669 682.66669"
   xmlns="http://www.w3.org/2000/svg"
   xmlns:svg="http://www.w3.org/2000/svg"><defs
     id="defs4609"><clipPath
       clipPathUnits="userSpaceOnUse"
       id="clipPath4619"><path
         d="M 0,512 H 512 V 0 H 0 Z"
         id="path4617" /></clipPath></defs><g
     id="g4611"
     transform="matrix(1.3333333,0,0,-1.3333333,0,682.66667)"><g
       id="g4613"><g
         id="g4615"
         clip-path="url(#clipPath4619)"><g
           id="g4621"
           transform="translate(171.8311,346.0732)"><path
             d="m 0,0 c 0,-10.403 -8.435,-18.838 -18.839,-18.838 -10.403,0 -18.838,8.435 -18.838,18.838 0,10.404 8.435,18.839 18.838,18.839 C -8.435,18.839 0,10.404 0,0 Z"
             style="fill:none;stroke:#000000;stroke-width:15;stroke-linecap:round;stroke-linejoin:round;stroke-miterlimit:10;stroke-dasharray:none;stroke-opacity:1"
             id="path4623" /></g><g
           id="g4625"
           transform="translate(134.1543,346.0732)"><path
             d="m 0,0 h -9.421 c -6.225,0 -12.18,-2.555 -16.469,-7.067 L -53.162,-35.755 C -62.521,-45.6 -67.739,-58.663 -67.739,-72.246 V -96.07 l -40.746,-95.079 c -1.058,-2.467 0.753,-5.212 3.436,-5.212 h 21.235 c 1.421,0 2.72,0.806 3.351,2.081 l 45.996,92.984 c 0.945,1.908 2.889,3.115 5.018,3.115 h 15.129 c 3.776,0 6.468,-3.662 5.342,-7.266 l -9.966,-31.906 c -0.753,-2.407 1.046,-4.853 3.568,-4.853 H 3.119 c 1.577,0 2.985,0.989 3.519,2.474 l 18.692,52 c 3.158,8.786 -3.352,18.045 -12.689,18.045 H -4.922 c -3.496,0 -5.352,4.129 -3.031,6.745 L 7.8,-45.199 c 1.269,1.43 3.09,2.248 5.002,2.248 h 55.204 c 8.428,0 15.259,6.832 15.259,15.26 0,8.426 -6.831,15.258 -15.259,15.258 H 34.662"
             style="fill:none;stroke:#000000;stroke-width:15;stroke-linecap:round;stroke-linejoin:round;stroke-miterlimit:10;stroke-dasharray:none;stroke-opacity:1"
             id="path4627" /></g><g
           id="g4629"
           transform="translate(242.0752,297.0723)"><path
             d="m 0,0 c 16.711,-2.416 34.247,-0.802 51.188,5.498 53.988,20.076 81.479,80.117 61.402,134.106 -20.076,53.988 -80.118,81.479 -134.107,61.403 -43.79,-16.284 -70.145,-58.861 -67.827,-103.175 0.088,0 0.173,0.008 0.261,0.008"
             style="fill:none;stroke:#000000;stroke-width:15;stroke-linecap:round;stroke-linejoin:round;stroke-miterlimit:10;stroke-dasharray:none;stroke-opacity:1"
             id="path4631" /></g><g
           id="g4633"
           transform="translate(132.4609,7.3633)"><path
             d="M 0,0 V 61.838"
             style="fill:none;stroke:#000000;stroke-width:15;stroke-linecap:round;stroke-linejoin:round;stroke-miterlimit:10;stroke-dasharray:none;stroke-opacity:1"
             id="path4635" /></g><g
           id="g4637"
           transform="translate(132.4609,101.1641)"><path
             d="m 0,0 v 41.484 c 0,3.902 -3.162,7.064 -7.063,7.064 h -86.229 c -3.901,0 -7.063,-3.162 -7.063,-7.064 V -93.801"
             style="fill:none;stroke:#000000;stroke-width:15;stroke-linecap:round;stroke-linejoin:round;stroke-miterlimit:10;stroke-dasharray:none;stroke-opacity:1"
             id="path4639" /></g><g
           id="g4641"
           transform="translate(296.374,7.2109)"><path
             d="M 0,0 V 173.354"
             style="fill:none;stroke:#000000;stroke-width:15;stroke-linecap:round;stroke-linejoin:round;stroke-miterlimit:10;stroke-dasharray:none;stroke-opacity:1"
             id="path4643" /></g><g
           id="g4645"
           transform="translate(296.374,212.5273)"><path
             d="m 0,0 v 43.623 c 0,3.9 -3.163,7.064 -7.063,7.064 h -86.229 c -3.9,0 -7.063,-3.164 -7.063,-7.064 V -8.66"
             style="fill:none;stroke:#000000;stroke-width:15;stroke-linecap:round;stroke-linejoin:round;stroke-miterlimit:10;stroke-dasharray:none;stroke-opacity:1"
             id="path4647" /></g><g
           id="g4649"
           transform="translate(210.1699,7.3633)"><path
             d="m 0,0 v 189.44 c 0,3.902 -3.162,7.064 -7.063,7.064 h -86.229 c -3.9,0 -7.063,-3.162 -7.063,-7.064 v -47.091"
             style="fill:none;stroke:#000000;stroke-width:15;stroke-linecap:round;stroke-linejoin:round;stroke-miterlimit:10;stroke-dasharray:none;stroke-opacity:1"
             id="path4651" /></g><g
           id="g4653"
           transform="translate(210.1699,7.3633)"><path
             d="m 0,0 v 189.44 c 0,3.902 -3.162,7.064 -7.063,7.064 h -86.229 c -3.9,0 -7.063,-3.162 -7.063,-7.064 v -47.091"
             style="fill:none;stroke:#000000;stroke-width:15;stroke-linecap:round;stroke-linejoin:round;stroke-miterlimit:10;stroke-dasharray:none;stroke-opacity:1"
             id="path4655" /></g><g
           id="g4657"
           transform="translate(386.7783,7.2109)"><path
             d="m 0,0 v 327.23 c 0,3.901 -3.162,7.064 -7.063,7.064 h -36.67"
             style="fill:none;stroke:#000000;stroke-width:15;stroke-linecap:round;stroke-linejoin:round;stroke-miterlimit:10;stroke-dasharray:none;stroke-opacity:1"
             id="path4659" /></g><g
           id="g4661"
           transform="translate(286.4238,300.2949)"><path
             d="M 0,0 V -37.081"
             style="fill:none;stroke:#000000;stroke-width:15;stroke-linecap:round;stroke-linejoin:round;stroke-miterlimit:10;stroke-dasharray:none;stroke-opacity:1"
             id="path4663" /></g><g
           id="g4665"
           transform="translate(487.1338,7.2109)"><path
             d="M 0,0 V 295.948"
             style="fill:none;stroke:#000000;stroke-width:15;stroke-linecap:round;stroke-linejoin:round;stroke-miterlimit:10;stroke-dasharray:none;stroke-opacity:1"
             id="path4667" /></g><g
           id="g4669"
           transform="translate(487.1338,335.1221)"><path
             d="m 0,0 v 43.697 c 0,3.901 -3.163,7.064 -7.063,7.064 h -86.229 c -3.9,0 -7.063,-3.163 -7.063,-7.064 v -371.608"
             style="fill:none;stroke:#000000;stroke-width:15;stroke-linecap:round;stroke-linejoin:round;stroke-miterlimit:10;stroke-dasharray:none;stroke-opacity:1"
             id="path4671" /></g><g
           id="g4673"
           transform="translate(504.8623,7.2109)"><path
             d="M 0,0 H -497.512"
             style="fill:none;stroke:#000000;stroke-width:15;stroke-linecap:round;stroke-linejoin:round;stroke-miterlimit:10;stroke-dasharray:none;stroke-opacity:1"
             id="path4675" /></g></g></g></g></svg>
