<svg width="683" height="683" viewBox="0 0 683 683" fill="none" xmlns="http://www.w3.org/2000/svg">
<g clip-path="url(#clip0_87_2733)">
<mask id="mask0_87_2733" style="mask-type:luminance" maskUnits="userSpaceOnUse" x="0" y="0" width="683" height="683">
<path d="M0 0.000366211H682.667V682.667H0V0.000366211Z" fill="white"/>
</mask>
<g mask="url(#mask0_87_2733)">
<path d="M229.108 221.236C229.108 235.107 217.861 246.354 203.989 246.354C190.119 246.354 178.872 235.107 178.872 221.236C178.872 207.364 190.119 196.118 203.989 196.118C217.861 196.118 229.108 207.364 229.108 221.236Z" stroke="black" stroke-width="20" stroke-miterlimit="10" stroke-linecap="round" stroke-linejoin="round"/>
<path d="M178.872 221.236H166.311C158.011 221.236 150.071 224.643 144.352 230.659L107.99 268.909C95.5109 282.036 88.5536 299.453 88.5536 317.564V349.329L34.2256 476.101C32.8149 479.391 35.2296 483.051 38.8069 483.051H67.1203C69.0149 483.051 70.7469 481.976 71.5883 480.276L132.916 356.297C134.176 353.753 136.768 352.144 139.607 352.144H159.779C164.814 352.144 168.403 357.027 166.902 361.832L153.614 404.373C152.61 407.583 155.008 410.844 158.371 410.844H183.031C185.134 410.844 187.011 409.525 187.723 407.545L212.646 338.212C216.856 326.497 208.176 314.152 195.727 314.152H172.31C167.648 314.152 165.174 308.647 168.268 305.159L189.272 281.501C190.964 279.595 193.392 278.504 195.942 278.504H269.547C280.784 278.504 289.892 269.395 289.892 258.157C289.892 246.923 280.784 237.813 269.547 237.813H225.088" stroke="black" stroke-width="20" stroke-miterlimit="10" stroke-linecap="round" stroke-linejoin="round"/>
<path d="M322.767 286.57C345.048 289.792 368.43 287.64 391.018 279.24C463.002 252.472 499.656 172.417 472.887 100.432C446.119 28.4478 366.063 -8.20691 294.078 18.5611C235.691 40.2731 200.551 97.0424 203.642 156.128C203.759 156.128 203.872 156.117 203.99 156.117" stroke="black" stroke-width="20" stroke-miterlimit="10" stroke-linecap="round" stroke-linejoin="round"/>
<path d="M176.614 672.85V590.399" stroke="black" stroke-width="20" stroke-miterlimit="10" stroke-linecap="round" stroke-linejoin="round"/>
<path d="M176.614 547.782V492.47C176.614 487.267 172.398 483.051 167.197 483.051H52.225C47.0236 483.051 42.8076 487.267 42.8076 492.47V672.85" stroke="black" stroke-width="20" stroke-miterlimit="10" stroke-linecap="round" stroke-linejoin="round"/>
<path d="M395.165 673.053V441.914" stroke="black" stroke-width="20" stroke-miterlimit="10" stroke-linecap="round" stroke-linejoin="round"/>
<path d="M395.165 399.297V341.133C395.165 335.933 390.948 331.714 385.748 331.714H270.776C265.576 331.714 261.358 335.933 261.358 341.133V410.844" stroke="black" stroke-width="20" stroke-miterlimit="10" stroke-linecap="round" stroke-linejoin="round"/>
<path d="M280.227 672.85V420.263C280.227 415.06 276.011 410.844 270.809 410.844H155.837C150.637 410.844 146.42 415.06 146.42 420.263V483.051" stroke="black" stroke-width="20" stroke-miterlimit="10" stroke-linecap="round" stroke-linejoin="round"/>
<path d="M280.227 672.85V420.263C280.227 415.06 276.011 410.844 270.809 410.844H155.837C150.637 410.844 146.42 415.06 146.42 420.263V483.051" stroke="black" stroke-width="20" stroke-miterlimit="10" stroke-linecap="round" stroke-linejoin="round"/>
<path d="M515.704 673.053V236.746C515.704 231.545 511.488 227.327 506.287 227.327H457.394" stroke="black" stroke-width="20" stroke-miterlimit="10" stroke-linecap="round" stroke-linejoin="round"/>
<path d="M381.898 282.274V331.716" stroke="black" stroke-width="20" stroke-miterlimit="10" stroke-linecap="round" stroke-linejoin="round"/>
<path d="M649.512 673.053V278.455" stroke="black" stroke-width="20" stroke-miterlimit="10" stroke-linecap="round" stroke-linejoin="round"/>
<path d="M649.512 235.838V177.575C649.512 172.374 645.294 168.157 640.094 168.157H525.122C519.922 168.157 515.705 172.374 515.705 177.575V673.053" stroke="black" stroke-width="20" stroke-miterlimit="10" stroke-linecap="round" stroke-linejoin="round"/>
<path d="M673.15 673.053H9.80029" stroke="black" stroke-width="20" stroke-miterlimit="10" stroke-linecap="round" stroke-linejoin="round"/>
</g>
</g>
<defs>
<clipPath id="clip0_87_2733">
<rect width="682.667" height="682.667" fill="white"/>
</clipPath>
</defs>
</svg>
