<svg width="92" height="36" viewBox="0 0 92 36" fill="none" xmlns="http://www.w3.org/2000/svg">
<path d="M16.9231 1.33691L31.4934 14.5233H2.93848L16.9231 1.33691Z" fill="#D48329"/>
<path d="M5.65776 20.0676H28.6291C30.1711 20.0676 31.4209 21.1338 31.4209 22.4487C31.4209 23.7636 30.1711 24.8297 28.6291 24.8297H5.65776C4.11579 24.8305 2.86523 23.7643 2.86523 22.4494C2.86523 21.1345 4.11506 20.0684 5.65703 20.0684L5.65776 20.0676Z" fill="#5B3719"/>
<path d="M2.86523 25.1428H31.4202V28.7009C31.4202 29.8914 30.4771 30.8564 29.3137 30.8564H4.97244C3.80901 30.8564 2.86597 29.8914 2.86597 28.7009V25.1428H2.86523Z" fill="#D48329"/>
<path d="M15.7033 17.4453H3.93204C3.38331 17.4453 2.93848 17.9003 2.93848 18.4616C2.93848 19.0229 3.38331 19.478 3.93204 19.478H15.7033C16.252 19.478 16.6968 19.0229 16.6968 18.4616C16.6968 17.9003 16.252 17.4453 15.7033 17.4453Z" fill="#E9463E"/>
<path d="M30.5001 17.4453H18.7289C18.1802 17.4453 17.7354 17.9003 17.7354 18.4616C17.7354 19.0229 18.1802 19.478 18.7289 19.478H30.5001C31.0489 19.478 31.4937 19.0229 31.4937 18.4616C31.4937 17.9003 31.0489 17.4453 30.5001 17.4453Z" fill="#E9463E"/>
<path d="M6.41435 17.2775C5.42152 17.2775 4.89655 16.9725 4.43381 16.7036C4.08676 16.502 3.77778 16.3237 3.25574 16.266C3.03315 16.2413 2.86475 16.0502 2.86329 15.8217C2.86182 15.5543 3.08587 15.343 3.34506 15.3707C4.05234 15.4464 4.4814 15.6974 4.86726 15.9214C5.29265 16.1686 5.66167 16.3837 6.43558 16.3777C7.21096 16.3739 7.57632 16.1559 7.99878 15.9049C8.46298 15.6284 8.99015 15.3153 9.99909 15.31C11.0058 15.3055 11.5381 15.6127 12.0053 15.8839C12.4307 16.1312 12.7982 16.3424 13.5736 16.3402C14.349 16.3364 14.7143 16.1184 15.1368 15.8674C15.601 15.591 16.1274 15.2778 17.1371 15.2725C18.146 15.2666 18.6761 15.5752 19.1433 15.8465C19.565 16.0915 19.9296 16.3035 20.6896 16.3035C20.6969 16.3035 20.7043 16.3035 20.7116 16.3035C21.487 16.2997 21.8523 16.0817 22.2748 15.8307C22.739 15.5543 23.2661 15.2411 24.2751 15.2358C25.2877 15.2298 25.8141 15.5385 26.282 15.8097C26.7037 16.0547 27.0683 16.2668 27.8284 16.2668C27.8357 16.2668 27.843 16.2668 27.8503 16.2668C28.6257 16.263 28.991 16.045 29.4142 15.794C29.7979 15.5655 30.2248 15.3123 30.9306 15.2283C31.189 15.1976 31.416 15.4067 31.4168 15.6734C31.4182 15.9019 31.2505 16.0952 31.0287 16.1214C30.5067 16.1836 30.1999 16.3664 29.855 16.5717C29.3908 16.8482 28.8636 17.1613 27.854 17.1666C27.8452 17.1666 27.8371 17.1666 27.8284 17.1666C26.8355 17.1666 26.3105 16.8617 25.8471 16.5927C25.4253 16.3477 25.0607 16.1357 24.3007 16.1357C24.2934 16.1357 24.2861 16.1357 24.2788 16.1357C23.5034 16.1394 23.138 16.3574 22.7156 16.6084C22.2514 16.8849 21.7242 17.1981 20.7152 17.2033C20.7065 17.2033 20.6977 17.2033 20.6896 17.2033C19.6968 17.2033 19.1718 16.8984 18.7091 16.6294C18.2837 16.3822 17.9176 16.1709 17.1408 16.1731C16.3654 16.1769 16 16.3949 15.5776 16.6459C15.1134 16.9223 14.5869 17.2355 13.5772 17.2408C13.5685 17.2408 13.5604 17.2408 13.5516 17.2408C12.5588 17.2408 12.0345 16.9358 11.5711 16.6669C11.1457 16.4196 10.7767 16.2038 10.0028 16.2106C9.22738 16.2143 8.86202 16.4324 8.43955 16.6833C7.97535 16.9598 7.44818 17.273 6.43924 17.2782C6.43046 17.2782 6.4224 17.2782 6.41362 17.2782L6.41435 17.2775Z" fill="#76BF63"/>
<path d="M11.3723 6.68253L8.00098 2.83228L6.14692 4.53217L9.5182 8.38242L11.3723 6.68253Z" fill="#D48329"/>
<path d="M5.6272 5.30864L8.99414 2.28076L7.3508 0.367306L3.98386 3.39518L5.6272 5.30864Z" fill="#D48329"/>
<path d="M56.8891 17C57.3291 17.02 57.8291 17.1 58.2091 17.4C58.3891 17.54 58.4891 17.78 58.4891 18.02C58.4891 18.28 58.3891 18.66 58.2291 18.8C57.8091 19.2 56.7691 19.16 56.7291 19.16L46.0691 19.18C45.4691 19.2 44.7291 19.24 44.2891 18.88C43.9891 18.66 43.8291 18.4 43.8291 18.1C43.8291 17.74 44.1091 17.28 44.5291 17.14C45.0891 16.96 45.6891 17.02 46.2891 17C47.5891 16.96 48.0091 17 49.3491 17V15.98C46.4491 15.86 44.6091 15.32 44.6091 13.42C44.6091 12.98 44.7291 12.6 44.9691 12.28C44.4491 12.22 43.8491 12.04 43.7891 11.42C43.6891 10.5 44.4091 10.26 45.2291 10.26L49.3891 10.28L49.4091 9.68C49.4291 8.96 49.8091 8.84 50.2291 8.7C51.2091 8.36 52.1091 8.86 52.1091 9.64V10.28L55.7891 10.26C56.6891 10.24 58.1691 10.12 58.2491 11.08C58.3091 11.9 57.6691 12.18 56.9891 12.26C57.1891 12.58 57.3091 12.96 57.3091 13.42C57.3091 15.38 55.2491 15.9 52.1691 15.98C52.1891 16.36 52.1891 16.74 52.1891 17C53.6691 17 55.7491 16.94 56.8891 17ZM44.8291 25.08C44.8091 25.08 44.7891 25.06 44.7691 25.04C44.5091 24.84 44.4291 24.4 44.4291 24.1C44.4091 23.62 44.3491 23.14 44.3491 22.68C44.3491 22 44.3291 21.48 44.4491 20.82C44.5291 20.4 44.6891 20.16 45.0891 20C45.4491 19.86 45.8291 19.78 46.2091 19.78H55.6291C56.1291 19.8 56.6891 19.82 57.1691 20.04C57.6891 20.26 57.8291 20.66 57.8691 21.18C57.9091 22.1 57.9491 23.58 57.6891 24.54C57.6091 24.84 57.5491 25.08 57.2291 25.18C56.9491 25.28 56.6091 25.3 56.3291 25.3L45.9091 25.26C45.5691 25.24 45.1291 25.28 44.8291 25.08ZM46.7291 22.8C46.7291 22.92 46.7291 23.08 46.8091 23.14C46.9091 23.24 47.3691 23.18 47.3691 23.18H53.6291C53.6291 23.18 54.5691 23.26 55.0691 23.2C55.3291 23.18 55.3491 23.04 55.3691 22.8C55.3891 22.58 55.4291 22.26 55.2691 22.06C55.0891 21.84 54.6891 21.88 54.4291 21.9H48.8691C48.2891 21.86 47.7291 21.88 47.1491 21.9C46.9291 21.9 46.8291 21.86 46.7691 22.1C46.7291 22.28 46.7291 22.46 46.7291 22.62C46.7491 22.66 46.7291 22.72 46.7291 22.8ZM54.5491 13.42C54.5491 12.66 52.6891 12.62 50.9091 12.62C49.1291 12.62 47.3691 12.66 47.3691 13.42C47.3691 14.1 49.1291 14.12 50.9091 14.12C52.6891 14.12 54.5491 14.32 54.5491 13.42ZM61.8565 15.5C61.8565 15.44 61.7965 12.88 61.8165 12.28C61.0165 12.24 60.0565 12.36 59.6365 11.52C59.3165 10.9 59.7165 10.26 60.3165 10.06C60.9365 9.84 61.7365 9.82 62.3965 9.82C64.5965 9.82 69.3165 9.84 71.5165 9.84C72.0565 9.84 72.7965 9.92 73.1965 10.34C73.5765 10.76 73.5965 11.62 73.1165 11.98C73.0565 12.04 72.9765 12.08 72.8765 12.12C72.3765 12.34 71.7365 12.16 71.1965 12.28C71.2565 12.64 71.2565 12.92 71.2565 13.14V15.46C71.2565 15.42 72.4365 15.6 72.5365 15.62C73.1965 15.72 73.5565 15.84 73.4765 16.64C73.3765 17.96 72.5365 17.74 71.4765 17.76C70.7965 17.78 70.0965 17.76 69.4165 17.76C68.3765 17.76 64.7965 17.76 63.7565 17.78C63.0365 17.78 62.3365 17.78 61.6165 17.76C60.9365 17.76 59.6365 17.56 59.5365 16.68C59.3965 15.44 61.0765 15.58 61.8565 15.5ZM61.0565 21.78C60.4365 21.76 59.8565 21.66 59.5165 21.14C59.2365 20.7 59.2365 20.12 59.5965 19.74C60.0165 19.32 60.9965 19.34 61.0365 19.34H71.9365C72.7765 19.3 74.0765 19.34 74.0765 20.52C74.0765 21.84 71.9965 21.74 71.1365 21.76H70.3565C69.8365 21.78 69.3165 21.76 68.7965 21.76H68.0365C68.0565 22.5 68.1165 23.4 68.0165 24.04C67.9565 24.54 67.7765 25.06 67.3365 25.34C66.9365 25.6 66.3365 25.62 65.9165 25.38C65.5765 25.18 65.4165 24.7 65.3565 24.34C65.2965 24.04 65.3365 23.68 65.3365 23.38C65.3165 22.9 65.3165 22.3 65.3165 21.74H64.8165C63.3365 21.76 62.5365 21.8 61.0565 21.78ZM64.2965 13.62L64.2765 14.88C64.2765 14.96 64.3165 15.24 64.4165 15.46H68.7965V13.62C68.7965 13.6 68.7965 12.86 68.7365 12.5C68.7365 12.42 68.7165 12.34 68.6765 12.28H64.3765C64.3165 12.34 64.2965 12.4 64.2765 12.5C64.2165 12.7 64.2765 13.24 64.2965 13.62ZM85.4824 12.2C85.4224 12.26 85.3424 12.3 85.2424 12.34C84.7624 12.56 84.1424 12.38 83.6224 12.5C83.6824 12.86 83.6824 13.2 83.6824 13.42V21.94C83.6824 21.9 84.8224 22.08 84.9224 22.1C85.5624 22.2 85.9024 22.32 85.8224 23.12C85.7224 24.44 84.9224 24.22 83.9024 24.24C83.2424 24.26 82.5624 24.24 81.9224 24.24C80.9024 24.24 79.9024 24.24 78.9024 24.26C78.2224 24.26 77.5424 24.26 76.8424 24.24C76.1824 24.24 74.9424 24.04 74.8424 23.16C74.7024 21.92 76.3224 22.06 77.0824 21.98C77.0624 21.48 77.0824 21 77.0824 20.52V13.7C77.0824 13.62 77.0224 13.1 77.0424 12.5C76.2624 12.46 75.3424 12.58 74.9424 11.74C74.6224 11.12 75.0024 10.48 75.5824 10.28C76.1824 10.06 76.9624 10.04 77.6024 10.04C79.7224 10.04 81.8224 10.06 83.9424 10.06C84.4624 10.06 85.1824 10.14 85.5624 10.56C85.9224 10.98 85.9424 11.84 85.4824 12.2ZM89.9024 15.46H89.9424C90.0624 15.46 90.1824 15.5 90.3224 15.5C90.4624 15.52 90.6224 15.54 90.7824 15.56C91.0824 15.62 91.4024 15.74 91.5424 16.04C91.6424 16.2 91.6824 16.38 91.6824 16.56C91.6824 16.76 91.6824 16.94 91.6224 17.14C91.5824 17.34 91.5224 17.62 91.3424 17.76C91.1824 17.88 91.0024 17.98 90.8024 18.02C90.3824 18.08 89.6624 18.02 89.2424 18.04C89.2024 18.04 89.1824 18.06 89.1824 18.06C89.1824 18.06 89.1624 18.06 89.1624 18.14C89.1424 18.8 89.1624 19.96 89.1624 20.64C89.1824 21.32 89.1824 22.02 89.1624 22.68V22.96C89.1624 23.66 89.1624 24.68 88.6824 25.16C88.5224 25.34 88.3024 25.44 88.0424 25.44C88.0424 25.44 88.0224 25.42 88.0024 25.42C86.7024 25.38 86.5624 23.82 86.5624 22.98V11.1C86.5624 11.06 86.5424 10.06 86.9824 9.62C87.1624 9.44 87.5824 9.34 87.8824 9.34C88.1824 9.34 88.4424 9.46 88.6224 9.64C88.9824 10.02 89.0024 10.44 89.0424 10.88C89.0624 10.96 89.0624 11.04 89.0624 11.12C89.1224 11.56 89.1224 12.06 89.1424 12.54C89.1424 12.84 89.1624 13.1 89.1624 13.4C89.1424 13.56 89.1624 13.7 89.1624 13.84V14.98C89.1624 15.12 89.1624 15.28 89.2024 15.42C89.2024 15.44 89.6024 15.44 89.6224 15.44C89.7224 15.46 89.8024 15.48 89.9024 15.46ZM79.4224 13.9C79.4424 14.1 79.4424 14.24 79.4424 14.36L79.4024 21.36C79.4024 21.44 79.4424 21.72 79.5424 21.94H81.3224V14.3C81.3224 14.28 81.3224 13.08 81.2624 12.72C81.2624 12.64 81.2424 12.56 81.2024 12.5H79.5624C79.5024 12.56 79.4824 12.62 79.4624 12.72C79.4024 12.92 79.4024 13.52 79.4224 13.9Z" fill="#D48329"/>
</svg>
