<svg width="35" height="35" viewBox="0 0 512 512" fill="none" xmlns="http://www.w3.org/2000/svg">
<path d="M253.781 14.3074L512 233.006H5.95337L253.781 14.3074Z" fill="#CD802D"/>
<path d="M51.4628 330.092H458.552C485.882 330.092 508.031 347.715 508.031 369.437C508.031 391.173 485.882 408.782 458.552 408.782H51.4628C24.1333 408.782 1.98438 391.159 1.98438 369.437C1.98438 347.715 24.1333 330.092 51.4628 330.092Z" fill="#5A3719"/>
<path d="M0 416.958H506.047V476.146C506.047 495.948 489.333 512 468.716 512H37.3303C16.7131 512 0 495.948 0 476.146V416.958Z" fill="#CD802D"/>
<path d="M21.529 287.17H229.51C239.195 287.17 247.07 294.717 247.07 304.032C247.07 313.333 239.21 320.894 229.51 320.894H21.529C11.8433 320.894 3.96899 313.347 3.96899 304.032C3.96899 294.702 11.8283 287.17 21.529 287.17Z" fill="#DC463E"/>
<path d="M284.546 287.17H493.376C503.101 287.17 511.008 294.717 511.008 304.032C511.008 313.333 503.116 320.894 493.376 320.894H284.546C274.821 320.894 266.915 313.347 266.915 304.032C266.93 294.702 274.821 287.17 284.546 287.17Z" fill="#DC463E"/>
<path d="M64.8837 276.921C47.2857 276.921 37.9913 271.752 29.7929 267.2C23.6366 263.794 18.1711 260.769 8.92162 259.785C4.98761 259.359 1.99956 256.129 1.98454 252.267V252.253C1.95451 247.745 5.93358 244.162 10.5283 244.647C23.066 245.924 30.6638 250.182 37.4958 253.971C45.0335 258.155 51.5801 261.797 65.2891 261.694C79.0281 261.635 85.4997 257.935 92.9924 253.692C101.221 249.008 110.56 243.707 128.444 243.619C146.282 243.545 155.711 248.743 164 253.339C171.537 257.524 178.054 261.107 191.793 261.063C205.532 261.004 212.004 257.304 219.496 253.06C227.725 248.376 237.049 243.076 254.948 242.987C272.831 242.885 282.215 248.112 290.504 252.708C297.981 256.863 304.438 260.446 317.907 260.446C318.042 260.446 318.162 260.446 318.297 260.446C332.036 260.387 338.508 256.687 346 252.444C354.229 247.76 363.568 242.459 381.452 242.371C399.395 242.268 408.719 247.495 417.023 252.091C424.5 256.247 430.957 259.829 444.426 259.829C444.561 259.829 444.681 259.829 444.816 259.829C458.555 259.771 465.027 256.07 472.534 251.827C479.336 247.95 486.904 243.663 499.412 242.253C503.992 241.739 508.016 245.278 508.031 249.786C508.061 253.662 505.088 256.922 501.154 257.377C491.904 258.434 486.469 261.533 480.357 264.998C472.129 269.682 462.79 274.983 444.891 275.071C444.741 275.071 444.591 275.071 444.441 275.071C426.843 275.071 417.548 269.902 409.335 265.35C401.857 261.195 395.401 257.612 381.932 257.612C381.797 257.612 381.677 257.612 381.542 257.612C367.803 257.671 361.331 261.371 353.838 265.615C345.61 270.299 336.27 275.599 318.387 275.687C318.237 275.687 318.072 275.687 317.937 275.687C300.339 275.687 291.044 270.519 282.846 265.967C275.308 261.782 268.822 258.199 255.053 258.244C241.314 258.302 234.842 262.002 227.349 266.246C219.121 270.93 209.796 276.231 191.898 276.319C191.748 276.319 191.598 276.319 191.448 276.319C173.85 276.319 164.57 271.15 156.357 266.598C148.819 262.414 142.273 258.757 128.564 258.875C114.825 258.934 108.353 262.634 100.86 266.877C92.632 271.561 83.2925 276.862 65.4092 276.95C65.199 276.921 65.0489 276.921 64.8837 276.921Z" fill="#74B761"/>
<path d="M94.3535 38.2732L61.498 66.507L121.565 131.147L138.083 116.748L154.602 102.349L94.3535 38.2732Z" fill="#CD802D"/>
<rect width="81.4136" height="34.3166" transform="matrix(0.745845 -0.666119 0.64406 0.764975 25.7983 54.2312)" fill="#CD802D"/>
</svg>
