<svg width="32" height="22" viewBox="0 0 32 22" fill="none" xmlns="http://www.w3.org/2000/svg">
<path d="M31.7833 10.1942C31.7369 10.0893 30.6119 7.59373 28.1111 5.09287C24.7788 1.76061 20.57 -0.000488281 15.9375 -0.000488281C11.305 -0.000488281 7.09616 1.76061 3.76389 5.09287C1.26303 7.59373 0.1328 10.0933 0.0916279 10.1942C0.0312157 10.3301 0 10.4771 0 10.6258C0 10.7745 0.0312157 10.9216 0.0916279 11.0575C0.138112 11.1624 1.26303 13.6566 3.76389 16.1575C7.09616 19.4884 11.305 21.2495 15.9375 21.2495C20.57 21.2495 24.7788 19.4884 28.1111 16.1575C30.6119 13.6566 31.7369 11.1624 31.7833 11.0575C31.8438 10.9216 31.875 10.7745 31.875 10.6258C31.875 10.4771 31.8438 10.3301 31.7833 10.1942ZM15.9375 19.1245C11.8495 19.1245 8.27819 17.6383 5.32178 14.7085C4.10874 13.5022 3.07671 12.1266 2.2578 10.6245C3.07648 9.12232 4.10854 7.7467 5.32178 6.54053C8.27819 3.61068 11.8495 2.12451 15.9375 2.12451C20.0255 2.12451 23.5968 3.61068 26.5532 6.54053C27.7686 7.74641 28.8029 9.12203 29.6238 10.6245C28.6662 12.4122 24.4946 19.1245 15.9375 19.1245ZM15.9375 4.24951C14.6766 4.24951 13.4441 4.6234 12.3957 5.32389C11.3474 6.02439 10.5303 7.02003 10.0478 8.18491C9.56525 9.34978 9.439 10.6316 9.68498 11.8682C9.93096 13.1048 10.5381 14.2408 11.4297 15.1323C12.3212 16.0239 13.4572 16.631 14.6938 16.877C15.9304 17.123 17.2122 16.9968 18.3771 16.5142C19.542 16.0317 20.5376 15.2146 21.2381 14.1663C21.9386 13.1179 22.3125 11.8854 22.3125 10.6245C22.3107 8.9343 21.6385 7.31381 20.4434 6.11865C19.2482 4.92348 17.6277 4.25127 15.9375 4.24951ZM15.9375 14.8745C15.0969 14.8745 14.2752 14.6253 13.5763 14.1583C12.8774 13.6913 12.3327 13.0275 12.011 12.2509C11.6893 11.4743 11.6052 10.6198 11.7691 9.79538C11.9331 8.97096 12.3379 8.21368 12.9323 7.61931C13.5267 7.02493 14.2839 6.62016 15.1084 6.45617C15.9328 6.29219 16.7873 6.37635 17.5639 6.69802C18.3405 7.0197 19.0042 7.56443 19.4712 8.26334C19.9382 8.96225 20.1875 9.78394 20.1875 10.6245C20.1875 11.7517 19.7397 12.8327 18.9427 13.6297C18.1457 14.4267 17.0647 14.8745 15.9375 14.8745Z" fill="black"/>
</svg>
