<svg width="21" height="22" viewBox="0 0 21 22" fill="none" xmlns="http://www.w3.org/2000/svg">
<path d="M20.7227 8.20362L19.101 9.57871C19.1778 10.0453 19.2174 10.5216 19.2174 10.998C19.2174 11.4744 19.1778 11.9508 19.101 12.4173L20.7227 13.7924C20.845 13.8963 20.9326 14.0346 20.9737 14.189C21.0148 14.3434 21.0076 14.5065 20.953 14.6567L20.9307 14.7206C20.4842 15.9581 19.8157 17.1053 18.9574 18.1068L18.9129 18.1583C18.8088 18.2797 18.67 18.367 18.5149 18.4087C18.3597 18.4503 18.1955 18.4444 18.0439 18.3916L16.031 17.682C15.2883 18.286 14.4589 18.7624 13.5626 19.0963L13.1739 21.1835C13.1446 21.3406 13.0678 21.4851 12.9537 21.5978C12.8396 21.7105 12.6936 21.7861 12.5351 21.8146L12.4683 21.8269C11.1784 22.0577 9.82162 22.0577 8.53171 21.8269L8.46487 21.8146C8.30641 21.7861 8.16043 21.7105 8.04634 21.5978C7.93224 21.4851 7.85543 21.3406 7.8261 21.1835L7.43492 19.0865C6.54582 18.7525 5.71785 18.2764 4.98385 17.677L2.95615 18.3916C2.80454 18.4448 2.64021 18.451 2.48498 18.4093C2.32976 18.3676 2.191 18.2801 2.08713 18.1583L2.04256 18.1068C1.1853 17.1046 0.516899 15.9576 0.0693283 14.7206L0.0470457 14.6567C-0.0643666 14.3498 0.0272392 14.006 0.277298 13.7924L1.91877 12.4026C1.84202 11.9409 1.80489 11.4695 1.80489 11.0005C1.80489 10.529 1.84202 10.0575 1.91877 9.59836L0.277298 8.20853C0.154981 8.10468 0.0674378 7.96635 0.0263082 7.81196C-0.0148215 7.65756 -0.00758843 7.4944 0.0470457 7.34418L0.0693283 7.28034C0.517453 6.04275 1.18098 4.90093 2.04256 3.89417L2.08713 3.8426C2.19125 3.72118 2.33002 3.6339 2.48515 3.59225C2.64028 3.55061 2.80449 3.55656 2.95615 3.60933L4.98385 4.32388C5.72165 3.72228 6.5461 3.24591 7.43492 2.91441L7.8261 0.81739C7.85543 0.66034 7.93224 0.515857 8.04634 0.403137C8.16043 0.290417 8.30641 0.214797 8.46487 0.186321L8.53171 0.174044C9.83347 -0.0580125 11.1665 -0.0580125 12.4683 0.174044L12.5351 0.186321C12.6936 0.214797 12.8396 0.290417 12.9537 0.403137C13.0678 0.515857 13.1446 0.66034 13.1739 0.81739L13.5626 2.90459C14.4585 3.23766 15.2926 3.71559 16.031 4.31897L18.0439 3.60933C18.1955 3.55614 18.3598 3.54998 18.515 3.59165C18.6702 3.63331 18.809 3.72084 18.9129 3.8426L18.9574 3.89417C19.819 4.90339 20.4825 6.04275 20.9307 7.28034L20.953 7.34418C21.0644 7.64621 20.9728 7.98999 20.7227 8.20362ZM17.3432 12.1276C17.4051 11.7568 17.4373 11.3762 17.4373 10.9956C17.4373 10.6149 17.4051 10.2343 17.3432 9.86356L17.1798 8.87889L19.0292 7.30981C18.7489 6.66919 18.395 6.06276 17.9745 5.50254L15.677 6.31041L14.8995 5.67688C14.3078 5.1956 13.6493 4.81744 12.9362 4.55225L11.9929 4.20111L11.5498 1.81925C10.8505 1.74067 10.1445 1.74067 9.4453 1.81925L9.00212 4.20602L8.06626 4.56207C7.36065 4.82727 6.70455 5.20542 6.11778 5.68425L5.34037 6.32023L3.02795 5.50499C2.60705 6.06731 2.25549 6.67382 1.97324 7.31226L3.84249 8.89608L3.68156 9.87829C3.62214 10.2442 3.58996 10.6223 3.58996 10.9956C3.58996 11.3712 3.61967 11.7469 3.68156 12.1128L3.84249 13.095L1.97324 14.6788C2.25301 15.3197 2.60705 15.9238 3.02795 16.4861L5.34037 15.6709L6.11778 16.3069C6.70455 16.7857 7.36065 17.1638 8.06626 17.429L9.0046 17.7802L9.44777 20.1669C10.1435 20.2455 10.854 20.2455 11.5522 20.1669L11.9954 17.7851L12.9387 17.4339C13.6493 17.1687 14.3103 16.7906 14.902 16.3093L15.6794 15.6758L17.977 16.4837C18.3979 15.9213 18.7495 15.3148 19.0317 14.6764L17.1823 13.1073L17.3432 12.1276ZM10.5025 15.5628C8.09597 15.5628 6.14502 13.6279 6.14502 11.2411C6.14502 8.85433 8.09597 6.91938 10.5025 6.91938C12.909 6.91938 14.8599 8.85433 14.8599 11.2411C14.8599 13.6279 12.909 15.5628 10.5025 15.5628ZM12.4633 9.29633C12.2061 9.04052 11.9005 8.83767 11.564 8.69944C11.2275 8.56122 10.8667 8.49035 10.5025 8.49091C9.7622 8.49091 9.06649 8.77821 8.54162 9.29633C8.28369 9.5514 8.07917 9.85454 7.9398 10.1883C7.80043 10.5221 7.72898 10.8799 7.72955 11.2411C7.72955 11.9753 8.01922 12.6653 8.54162 13.1859C9.06649 13.7065 9.7622 13.9913 10.5025 13.9913C11.2427 13.9913 11.9385 13.7065 12.4633 13.1859C12.7213 12.9308 12.9258 12.6277 13.0652 12.2939C13.2045 11.9602 13.276 11.6024 13.2754 11.2411C13.2754 10.5069 12.9857 9.8169 12.4633 9.29633Z" fill="black"/>
</svg>
