<svg width="57" height="59" viewBox="0 0 57 59" fill="none" xmlns="http://www.w3.org/2000/svg">
<ellipse cx="28.5" cy="29.5" rx="28.5" ry="29.5" fill="#C4C4C4"/>
<path d="M29 28C27.35 28 25.9375 27.4125 24.7625 26.2375C23.5875 25.0625 23 23.65 23 22C23 20.35 23.5875 18.9375 24.7625 17.7625C25.9375 16.5875 27.35 16 29 16C30.65 16 32.0625 16.5875 33.2375 17.7625C34.4125 18.9375 35 20.35 35 22C35 23.65 34.4125 25.0625 33.2375 26.2375C32.0625 27.4125 30.65 28 29 28ZM17 40V35.8C17 34.95 17.219 34.1685 17.657 33.4555C18.095 32.7425 18.676 32.199 19.4 31.825C20.95 31.05 22.525 30.4685 24.125 30.0805C25.725 29.6925 27.35 29.499 29 29.5C30.65 29.5 32.275 29.694 33.875 30.082C35.475 30.47 37.05 31.051 38.6 31.825C39.325 32.2 39.9065 32.744 40.3445 33.457C40.7825 34.17 41.001 34.951 41 35.8V40H17Z" fill="#676666"/>
</svg>
