<svg width="22" height="22" viewBox="0 0 22 22" fill="none" xmlns="http://www.w3.org/2000/svg">
<path d="M4.4 13.1998H13.2V10.9998H4.4V13.1998ZM4.4 9.89976H17.6V7.69976H4.4V9.89976ZM4.4 6.59976H17.6V4.39976H4.4V6.59976ZM0 21.9998V2.19976C0 1.59476 0.2156 1.07666 0.6468 0.645458C1.078 0.214258 1.59573 -0.000975606 2.2 -0.000242273H19.8C20.405 -0.000242273 20.9231 0.215358 21.3543 0.646558C21.7855 1.07776 22.0007 1.59549 22 2.19976V15.3998C22 16.0048 21.7844 16.5229 21.3532 16.9541C20.922 17.3853 20.4043 17.6005 19.8 17.5998H4.4L0 21.9998ZM3.465 15.3998H19.8V2.19976H2.2V16.6373L3.465 15.3998Z" fill="black"/>
</svg>
