<svg id="Layer_1" enable-background="new 0 0 34 34" height="512" viewBox="0 0 34 34" width="512" xmlns="http://www.w3.org/2000/svg"><g><path d="m30 4.8c0-2.1-1.7-3.8-3.8-3.8h-18.4c-2.1 0-3.8 1.7-3.8 3.8v24.4c0 2.1 1.7 3.8 3.8 3.8h18.4c2.1 0 3.8-1.7 3.8-3.8zm-2 24.4c0 1-.8 1.8-1.8 1.8h-18.4c-1 0-1.8-.8-1.8-1.8v-24.4c0-1 .8-1.8 1.8-1.8h18.4c1 0 1.8.8 1.8 1.8z"/><path d="m10.9 19h11.8c.3 0 .6-.1.8-.4.2-.2.3-.5.2-.8-.4-2.4-1.9-4.3-3.9-5.2.6-.7 1-1.6 1-2.7 0-2.2-1.8-4-4-4s-4 1.8-4 4c0 1 .4 1.9 1 2.7-2 1-3.6 2.9-3.9 5.2 0 .3 0 .6.2.8.2.3.5.4.8.4zm3.9-9c0-1.1.9-2 2-2s2 .9 2 2-.9 2-2 2-2-.9-2-2zm2 4c2 0 3.8 1.2 4.6 3h-9.2c.8-1.8 2.6-3 4.6-3z"/><path d="m25 22h-16c-.6 0-1 .4-1 1s.4 1 1 1h16c.6 0 1-.4 1-1s-.4-1-1-1z"/><path d="m25 26h-16c-.6 0-1 .4-1 1s.4 1 1 1h16c.6 0 1-.4 1-1s-.4-1-1-1z"/></g></svg>