<svg width="21" height="23" viewBox="0 0 21 23" fill="none" xmlns="http://www.w3.org/2000/svg">
<path d="M18.0804 20.6998V13.9807L20.0843 12.4719C20.5661 12.109 20.8866 11.5663 20.9752 10.963C21.0638 10.3597 20.9132 9.74529 20.5567 9.25496L19.4289 7.70476C19.1009 7.2525 18.621 6.93871 18.0804 6.82309V6.13309C18.0804 5.92977 18.001 5.7348 17.8597 5.59106L12.5862 0.224389C12.445 0.0806013 12.2534 -0.000200719 12.0536 -0.000244141H2.26005C1.66065 -0.000244141 1.0858 0.242077 0.661954 0.67341C0.238112 1.10474 0 1.68976 0 2.29976V20.6998C0 21.3098 0.238112 21.8948 0.661954 22.3261C1.0858 22.7574 1.66065 22.9998 2.26005 22.9998H15.8204C16.4198 22.9998 16.9946 22.7574 17.4185 22.3261C17.8423 21.8948 18.0804 21.3098 18.0804 20.6998ZM1.5067 20.6998V2.29976C1.5067 2.09642 1.58607 1.90142 1.72735 1.75764C1.86863 1.61386 2.06025 1.53309 2.26005 1.53309H11.3003V5.75512C11.3003 6.38762 11.8043 6.89976 12.425 6.89976H16.5737V7.03009C16.4682 7.08529 16.3665 7.14969 16.2679 7.22406L14.2978 8.70756C14.2748 8.62834 14.2272 8.55883 14.1622 8.50937C14.0972 8.45991 14.0182 8.43316 13.937 8.43309H4.14343C4.04353 8.43309 3.94772 8.47348 3.87708 8.54536C3.80644 8.61725 3.76675 8.71476 3.76675 8.81642C3.76675 8.91809 3.80644 9.01559 3.87708 9.08748C3.94772 9.15937 4.04353 9.19976 4.14343 9.19976H13.6439L11.6076 10.7331H4.14343C4.04353 10.7331 3.94772 10.7735 3.87708 10.8454C3.80644 10.9173 3.76675 11.0148 3.76675 11.1164C3.76675 11.2181 3.80644 11.3156 3.87708 11.3875C3.94772 11.4594 4.04353 11.4998 4.14343 11.4998H10.5899L8.55354 13.0331H4.14343C4.04353 13.0331 3.94772 13.0735 3.87708 13.1454C3.80644 13.2173 3.76675 13.3148 3.76675 13.4164C3.76675 13.5181 3.80644 13.6156 3.87708 13.6875C3.94772 13.7594 4.04353 13.7998 4.14343 13.7998H7.53577L5.54165 15.3009C5.52824 15.3112 5.51518 15.3219 5.50247 15.3331H4.14343C4.04353 15.3331 3.94772 15.3735 3.87708 15.4454C3.80644 15.5173 3.76675 15.6148 3.76675 15.7164C3.76675 15.8181 3.80644 15.9156 3.87708 15.9875C3.94772 16.0594 4.04353 16.0998 4.14343 16.0998H5.14765L4.06659 19.7062C4.03221 19.8207 4.0247 19.9419 4.04466 20.06C4.06462 20.1781 4.11149 20.2897 4.18151 20.386C4.25154 20.4824 4.34276 20.5606 4.44788 20.6146C4.55299 20.6685 4.66907 20.6966 4.78679 20.6967L8.90913 20.6998C9.07076 20.7 9.22817 20.6473 9.35812 20.5495L16.5737 15.1154V20.6998C16.5737 20.9031 16.4943 21.0981 16.3531 21.2419C16.2118 21.3856 16.0202 21.4664 15.8204 21.4664H2.26005C2.06025 21.4664 1.86863 21.3856 1.72735 21.2419C1.58607 21.0981 1.5067 20.9031 1.5067 20.6998ZM12.425 6.13309C12.3762 6.13309 12.3279 6.12331 12.2829 6.10432C12.2378 6.08532 12.1969 6.05748 12.1624 6.02238C12.1279 5.98729 12.1005 5.94562 12.0819 5.89976C12.0632 5.85391 12.0536 5.80476 12.0536 5.75512V1.85049L16.2618 6.13309H12.425ZM16.7515 13.0745L14.7318 10.2884L15.6132 9.62449L17.6367 12.4075L16.7515 13.0745ZM7.21107 15.9518L14.1261 10.7446L16.1451 13.5307L9.30313 18.6827L7.21107 15.9518ZM6.62346 16.431L8.69668 19.1396L8.66127 19.1664L6.69202 19.1649L6.06372 18.3001L6.62346 16.431Z" fill="black"/>
</svg>
