<svg width="92" height="107" viewBox="0 0 92 107" fill="none" xmlns="http://www.w3.org/2000/svg">
<g clip-path="url(#clip0_1_3120)">
<path d="M9.94196 0.5H66.058C71.1659 0.5 75.5 5.79623 75.5 12.5787V106.5H0.5V12.5787C0.5 5.79623 4.83406 0.5 9.94196 0.5Z" fill="#EFFFCE" stroke="black"/>
<path d="M8.86297 13.7432H66.5775C69.1818 13.7432 71.2904 16.4136 71.2904 19.7059V30.1002H4.15015V19.7059C4.15015 16.411 6.2608 13.7432 8.86297 13.7432Z" fill="#A5CE55"/>
<path d="M71.3864 31.3867H4.24414V47.7463H71.3864V31.3867Z" fill="#A5CE55"/>
<path d="M71.3864 49.228H4.24414V65.5877H71.3864V49.228Z" fill="#A5CE55"/>
<path d="M71.3864 67.0688H4.24414V83.4285H71.3864V67.0688Z" fill="#A5CE55"/>
<path d="M71.3864 84.9077H4.24414V101.267H71.3864V84.9077Z" fill="#A5CE55"/>
<path d="M72.799 30.1797H3.61418C3.21498 30.1797 2.89136 30.5891 2.89136 31.0942C2.89136 31.5993 3.21498 32.0087 3.61418 32.0087H72.799C73.1982 32.0087 73.5218 31.5993 73.5218 31.0942C73.5218 30.5891 73.1982 30.1797 72.799 30.1797Z" fill="black" stroke="#211815" strokeMiterlimit="10"/>
<path d="M73.0055 47.4248H3.82073C3.42152 47.4248 3.0979 47.8343 3.0979 48.3393C3.0979 48.8444 3.42152 49.2539 3.82073 49.2539H73.0055C73.4047 49.2539 73.7283 48.8444 73.7283 48.3393C73.7283 47.8343 73.4047 47.4248 73.0055 47.4248Z" fill="black" stroke="#211815" strokeMiterlimit="10"/>
<path d="M72.799 65.1929H3.61418C3.21498 65.1929 2.89136 65.6023 2.89136 66.1074C2.89136 66.6125 3.21498 67.0219 3.61418 67.0219H72.799C73.1982 67.0219 73.5218 66.6125 73.5218 66.1074C73.5218 65.6023 73.1982 65.1929 72.799 65.1929Z" fill="black" stroke="#211815" strokeMiterlimit="10"/>
<path d="M72.3859 83.4834H3.2011C2.80189 83.4834 2.47827 83.8928 2.47827 84.3979C2.47827 84.903 2.80189 85.3125 3.2011 85.3125H72.3859C72.7851 85.3125 73.1087 84.903 73.1087 84.3979C73.1087 83.8928 72.7851 83.4834 72.3859 83.4834Z" fill="black" stroke="#211815" strokeMiterlimit="10"/>
<path d="M28.7064 9.14517C29.3337 9.14517 29.8423 8.56024 29.8423 7.8387C29.8423 7.11715 29.3337 6.53223 28.7064 6.53223C28.0791 6.53223 27.5706 7.11715 27.5706 7.8387C27.5706 8.56024 28.0791 9.14517 28.7064 9.14517Z" fill="black"/>
<path d="M37.8968 10.4518C41.3186 10.4518 44.0925 9.39896 44.0925 8.10018C44.0925 6.8014 41.3186 5.74854 37.8968 5.74854C34.4751 5.74854 31.7012 6.8014 31.7012 8.10018C31.7012 9.39896 34.4751 10.4518 37.8968 10.4518Z" fill="black"/>
<path d="M47.2686 9.38797C47.8862 9.24865 48.3057 8.55986 48.2056 7.84952C48.1055 7.13918 47.5237 6.67628 46.9061 6.8156C46.2885 6.95493 45.869 7.64372 45.9691 8.35406C46.0692 9.0644 46.651 9.5273 47.2686 9.38797Z" fill="black"/>
</g>
<path d="M85.8977 30H76.1023C76.0458 30 76 31.7909 76 34C76 36.2091 76.0458 38 76.1023 38H85.8977C85.9542 38 86 36.2091 86 34C86 31.7909 85.9542 30 85.8977 30Z" fill="#EFFFCE" stroke="black" strokeMiterlimit="10"/>
<path d="M85.8977 71H76.1023C76.0458 71 76 72.7909 76 75C76 77.2091 76.0458 79 76.1023 79H85.8977C85.9542 79 86 77.2091 86 75C86 72.7909 85.9542 71 85.8977 71Z" fill="#EFFFCE" stroke="black" strokeMiterlimit="10"/>
<path d="M83.5 0.514462C87.9617 0.773271 91.5 4.47343 91.5 9V98C91.5 102.527 87.9617 106.227 83.5 106.486V0.514462Z" fill="#EFFFCE" stroke="black"/>
<defs>
<clipPath id="clip0_1_3120">
<rect width="76" height="107" fill="white"/>
</clipPath>
</defs>
</svg>
